<svg width="28" height="27" viewBox="0 0 28 27" fill="none" xmlns="http://www.w3.org/2000/svg">
<path d="M15.55 18.142L14.772 15.419C15 15.219 15.214 15.005 15.416 14.776L18.136 15.553C18.4221 15.1324 18.6749 14.69 18.892 14.23L16.867 12.27C16.964 11.982 17.047 11.69 17.107 11.387L19.837 10.704C19.857 10.452 19.877 10.199 19.877 9.941C19.877 9.683 19.857 9.431 19.837 9.179L17.107 8.495C17.0456 8.19592 16.9655 7.901 16.867 7.612L18.893 5.652C18.671 5.192 18.423 4.747 18.137 4.329L15.417 5.106C15.216 4.87779 15.0005 4.66268 14.772 4.462L15.55 1.74C15.1286 1.45493 14.6859 1.20252 14.226 0.985L12.266 3.01C11.9772 2.91083 11.6823 2.83066 11.383 2.77L10.7 0.04C10.447 0.02 10.195 0 9.937 0C9.679 0 9.427 0.02 9.175 0.04L8.491 2.77C8.191 2.83 7.897 2.913 7.609 3.01L5.648 0.987C5.188 1.21 4.744 1.457 4.326 1.744L5.104 4.466C4.876 4.666 4.661 4.88 4.461 5.106L1.74 4.331C1.45386 4.75195 1.20109 5.19463 0.984 5.655L3.01 7.615C2.914 7.903 2.83 8.195 2.77 8.498L0.04 9.182C0.02 9.434 0 9.687 0 9.944C0 10.201 0.02 10.454 0.04 10.707L2.77 11.39C2.83 11.692 2.914 11.985 3.01 12.273L0.984 14.233C1.204 14.693 1.452 15.138 1.739 15.556L4.459 14.776C4.659 15.006 4.875 15.219 5.103 15.42L4.325 18.143C4.743 18.429 5.188 18.676 5.648 18.898L7.608 16.872C7.895 16.969 8.188 17.052 8.49 17.112L9.174 19.842C9.426 19.862 9.679 19.882 9.937 19.882C10.195 19.882 10.447 19.862 10.699 19.842L11.382 17.112C11.684 17.052 11.978 16.968 12.265 16.872L14.225 18.898C14.685 18.674 15.129 18.428 15.547 18.141L15.55 18.142ZM9.938 13.342C9.48321 13.3556 9.03032 13.2777 8.60616 13.1131C8.182 12.9484 7.7952 12.7003 7.46868 12.3835C7.14217 12.0666 6.88257 11.6874 6.70527 11.2684C6.52797 10.8494 6.43658 10.399 6.43652 9.94401C6.43645 9.48902 6.52771 9.03864 6.70488 8.61956C6.88206 8.20048 7.14154 7.82122 7.46797 7.50426C7.79439 7.18729 8.18112 6.93907 8.60523 6.7743C9.02934 6.60953 9.48221 6.53155 9.937 6.545C10.8209 6.57113 11.6598 6.94058 12.2758 7.57496C12.8918 8.20935 13.2364 9.05876 13.2365 9.94301C13.2366 10.8273 12.8923 11.6768 12.2765 12.3113C11.6607 12.9459 10.8219 13.3156 9.938 13.342ZM25.43 20.446C25.447 19.8853 25.3692 19.3258 25.2 18.791L26.444 17.018C26.256 16.668 26.044 16.336 25.804 16.034L23.681 16.479C23.2538 16.1171 22.7687 15.8298 22.246 15.629L21.636 13.549C21.2484 13.4801 20.8556 13.4446 20.462 13.443L19.489 15.379C19.209 15.433 18.931 15.507 18.657 15.612C18.4 15.71 18.16 15.832 17.93 15.965L15.924 15.145C15.6287 15.4047 15.3566 15.6898 15.111 15.997L16.017 17.965C15.7558 18.4604 15.58 18.9962 15.497 19.55L13.607 20.61C13.627 20.998 13.683 21.386 13.771 21.775L15.875 22.295C16.105 22.818 16.415 23.287 16.791 23.687L16.439 25.825C16.759 26.055 17.099 26.253 17.452 26.425L19.168 25.105C19.704 25.245 20.265 25.3 20.83 25.255L22.282 26.862C22.482 26.805 22.682 26.744 22.878 26.669C23.0495 26.602 23.218 26.5276 23.383 26.446L23.421 24.282C23.876 23.942 24.264 23.535 24.573 23.076L26.733 22.942C26.886 22.582 27.013 22.21 27.103 21.827L25.433 20.447L25.43 20.446ZM21.267 22.452C20.981 22.5609 20.6764 22.6123 20.3706 22.6035C20.0648 22.5946 19.7636 22.5256 19.4845 22.4004C19.2053 22.2752 18.9535 22.0962 18.7435 21.8737C18.5335 21.6512 18.3694 21.3895 18.2605 21.1035C18.1516 20.8175 18.1002 20.5129 18.109 20.2071C18.1179 19.9013 18.1869 19.6001 18.3121 19.321C18.4373 19.0418 18.6163 18.79 18.8388 18.58C19.0613 18.37 19.323 18.2059 19.609 18.097C20.1868 17.8771 20.8282 17.8958 21.3922 18.1489C21.9563 18.402 22.3966 18.8687 22.6165 19.4465C22.8364 20.0243 22.8177 20.6657 22.5646 21.2297C22.3115 21.7938 21.8448 22.2341 21.267 22.454V22.452Z" fill="black"/>
</svg>
